<svg xmlns="http://www.w3.org/2000/svg" viewBox="0 0 64 64" width="64" height="64">
  <!-- Background -->
  <rect width="64" height="64" rx="12" fill="#121212" />
  
  <!-- Stylized 'SN' for Swipe Nexus -->
  <g transform="translate(8, 8)">
    <!-- S Shape -->
    <path d="M15 12 C22 12, 24 14, 24 18 C24 22, 20 24, 14 24 C8 24, 4 21, 4 17" 
          stroke="#4A00E0" stroke-width="5" fill="none" stroke-linecap="round" />
    
    <!-- N Shape -->
    <path d="M28 46 L28 20 L44 46 L44 20" 
          stroke="#00FFFF" stroke-width="5" fill="none" stroke-linecap="round" />
    
    <!-- Glowing Effect -->
    <path d="M15 12 C22 12, 24 14, 24 18 C24 22, 20 24, 14 24 C8 24, 4 21, 4 17" 
          stroke="#8A00D4" stroke-width="8" fill="none" stroke-linecap="round" opacity="0.3" />
    <path d="M28 46 L28 20 L44 46 L44 20" 
          stroke="#4DEEEA" stroke-width="8" fill="none" stroke-linecap="round" opacity="0.3" />
  </g>
  
  <!-- Decorative Elements -->
  <circle cx="12" cy="12" r="2" fill="#F000FF" />
  <circle cx="52" cy="12" r="2" fill="#F000FF" />
  <circle cx="12" cy="52" r="2" fill="#F000FF" />
  <circle cx="52" cy="52" r="2" fill="#F000FF" />
</svg> 